Coordinates
nRows=4
nColumns=38

# SIMM Motion File Header:
name Coordinates
datacolumns 38
datarows 4
otherdata 1
range 0.09791700000000000400 0.10091700000000001000

Units are S.I. units (second, meters, Newtons, ...)
Angles are in degrees.

endheader
time	pelvis_tilt	pelvis_list	pelvis_rotation	pelvis_tx	pelvis_ty	pelvis_tz	hip_flexion_r	hip_adduction_r	hip_rotation_r	knee_angle_r	ankle_angle_r	subtalar_angle_r	mtp_angle_r	hip_flexion_l	hip_adduction_l	hip_rotation_l	knee_angle_l	ankle_angle_l	subtalar_angle_l	mtp_angle_l	lumbar_extension	lumbar_bending	lumbar_rotation	arm_flex_r	arm_add_r	arm_rot_r	elbow_flex_r	pro_sup_r	wrist_flex_r	wrist_dev_r	arm_flex_l	arm_add_l	arm_rot_l	elbow_flex_l	pro_sup_l	wrist_flex_l	wrist_dev_l
      0.09791700000000000400	     -3.21291733360086300000	      1.24806752120998790000	      2.64423855181308510000	      0.77304318907919678000	      0.99095027732546936000	     -0.40195312187265764000	     35.46278181059717100000	     -0.64768156066583249000	     -6.48355780238784000000	    -22.13869149221990200000	      0.54286243129668688000	      0.00000000000000000000	      0.00000000000000000000	    -18.50463331174279000000	      2.29429513808192990000	      0.17928181869935164000	    -65.64551256243110800000	    -28.00286877556938600000	      0.00000000000000000000	      0.00000000000000000000	    -14.03115982973449500000	      2.48062993837861570000	    -17.13694227280740600000	    -53.80583639785807300000	    -32.31763466806697200000	    -27.15359145946554900000	    106.31681463033478000000	     73.34724176314135500000	      0.00000000000000000000	      0.00000000000000000000	     -8.36334857772568620000	    -34.40072986805566300000	      9.99323583317702640000	    132.25313045607044000000	     88.33913969494672400000	      0.00000000000000000000	      0.00000000000000000000
      0.09891700000000000500	     -3.16327514072855600000	      1.27477463866232670000	      2.57304177715237040000	      0.77309343904147965000	      0.99049950883325444000	     -0.40179944024887687000	     35.24080844360067700000	     -0.60551760683628264000	     -6.44485721216721250000	    -21.74965495286269500000	      0.45937446295288986000	     -0.00000000000000000141	     -0.00000000000000000040	    -18.34117212582807400000	      2.29680410460154990000	      0.03006369547148574100	    -66.50785353183451300000	    -27.78275782396553200000	     -0.00000000000000000047	     -0.00000000000000000122	    -14.12322664340141800000	      2.46350568067666930000	    -17.08856245439046600000	    -53.65088055672590200000	    -32.36420559322680600000	    -27.17234741578967700000	    106.35976488634518000000	     73.35031467625826500000	     -0.00000000000000000040	     -0.00000000000000000055	     -8.73958674047833210000	    -34.31323393358550100000	      9.90146691915896500000	    132.09526840202884000000	     88.15950093186579300000	      0.00000000000000000053	      0.00000000000000000038
      0.09991700000000000600	     -3.11464701775295660000	      1.29951880140152440000	      2.50194555995304580000	      0.77314143165353144000	      0.99003738766113347000	     -0.40164490935517855000	     35.02357777407998900000	     -0.56286591987388246000	     -6.40588305570444570000	    -21.37946910788083000000	      0.37593497683575361000	     -0.00000000000000000482	     -0.00000000000000000148	    -18.17498192291610700000	      2.29642157521914130000	     -0.11779468402822529000	    -67.37035635178493500000	    -27.55193399551200900000	     -0.00000000000000000559	     -0.00000000000000000153	    -14.21390093517887400000	      2.44787254444239140000	    -17.03943358807922300000	    -53.48961110888029000000	    -32.41324936725192900000	    -27.18596636504804200000	    106.40012142883971000000	     73.35537603266664100000	     -0.00000000000000000017	     -0.00000000000000000035	     -9.11608538343803330000	    -34.22244762616908500000	      9.80771572969455540000	    131.93315997526244000000	     87.97787918920489900000	      0.00000000000000000141	      0.00000000000000000098
      0.10091700000000001000	     -3.06694466642592370000	      1.32229188743568820000	      2.43086311028807330000	      0.77318711749458635000	      0.98956425560652228000	     -0.40148946055746371000	     34.81106340640257500000	     -0.51963260452953441000	     -6.36633733853816080000	    -21.02826780006923700000	      0.29006824233643685000	     -0.00000000000000000832	     -0.00000000000000000169	    -18.00618507621267000000	      2.29326721154511940000	     -0.26417620457444652000	    -68.23287890062677300000	    -27.31046751138499600000	     -0.00000000000000001169	     -0.00000000000000000401	    -14.30330244849137600000	      2.43373442423741170000	    -16.98949348433988900000	    -53.32193721981303000000	    -32.46479184234670600000	    -27.19436291522976000000	    106.43784433374908000000	     73.36227601845737900000	      0.00000000000000000104	      0.00000000000000000136	     -9.49276914529800560000	    -34.12836361372458100000	      9.71194778301015840000	    131.76681476543237000000	     87.79462571059332300000	      0.00000000000000000229	      0.00000000000000000095
